<svg width="1122" height="1122" xmlns="http://www.w3.org/2000/svg" xml:space="preserve" version="1.1">

 <g>
  <title>Synbase Logo</title>
  <g id="svg_3">
   <path id="svg_5" fill="#FFFFFF" clip-rule="evenodd" fill-rule="evenodd" d="m123.86999,498.4c-59.76,-0.24 -123.9,-4.02 -123.9,62.36c0,66.85 64.13,62.24 123.78,62.48c2.13,100.98 -0.47,202.68 0.35,303.66c1.77,200.67 236.1,255.12 335.31,122.6c22.56,-30.12 37.56,-64.72 39.09,-112.91c1.06,-32.24 4.72,-124.49 -3.78,-148.46c-13.35,-37.56 -66.85,-55.51 -100.75,-23.5c-55.16,51.97 25.28,218.27 -72.28,231.5c-53.5,7.2 -72.52,-30 -72.64,-79.02c-0.24,-67.2 -7.32,-724.25 5.43,-755.43c14.29,-34.61 66.02,-53.74 100.75,-19.49c26.81,26.57 18.43,84.68 18.43,130.87c0,139.02 -22.09,282.52 118.46,336.85c47.24,18.31 89.65,4.37 116.1,35.31c23.03,27.17 15.12,93.9 15.12,135.12c0,99.8 -14.65,197.13 36.97,266.46c39.21,52.56 121.18,98.03 215.91,63.43c68.03,-24.92 119.88,-90.35 121.65,-178.58c2.01,-102.4 -1.89,-205.87 0.35,-308.5c59.65,0 123.66,4.37 123.78,-62.36c0,-27.64 -17.83,-48.19 -36.38,-56.46c-21.38,-9.57 -62.01,-5.91 -87.4,-6.02c-2.13,-100.98 0.59,-202.56 -0.35,-303.54c-2.6,-257.01 -365.2,-257.72 -374.29,-9.69c-1.06,27.87 -3.66,127.68 3.78,148.7c12.64,36.02 66.26,55.39 100.51,23.27c55.98,-52.56 -26.22,-215.43 72.52,-230.67c53.39,-8.15 72.4,28.82 72.52,78.19c0.24,67.32 7.2,724.13 -5.67,755.31c-14.65,35.43 -66.14,53.86 -100.51,19.49c-27.17,-27.05 -18.43,-86.81 -18.43,-130.75c0,-50.32 0.59,-100.98 0,-151.18c-1.3,-95.67 -47.48,-157.2 -118.46,-185.67c-47.01,-18.78 -89.17,-3.9 -116.1,-35.31c-22.68,-26.57 -15.12,-93.9 -15.12,-135.12c0,-95.2 14.65,-195.47 -36.85,-266.46c-98.15,-135.24 -333.9,-82.44 -337.56,115.16c-1.99,102.38 1.43,205.72 -0.34,308.36l0,0z" class="st0"/>
  </g>
 </g>
</svg>
